<?xml version="1.0" standalone="no"?>
<!DOCTYPE svg PUBLIC "-//W3C//DTD SVG 20010904//EN"
 "http://www.w3.org/TR/2001/REC-SVG-20010904/DTD/svg10.dtd">
<svg version="1.0" xmlns="http://www.w3.org/2000/svg"
 width="269.000000pt" height="269.000000pt" viewBox="0 0 269.000000 269.000000"
 preserveAspectRatio="xMidYMid meet">
<metadata>
Created by potrace 1.11, written by Peter Selinger 2001-2013
</metadata>
<g transform="translate(0.000000,269.000000) scale(0.100000,-0.100000)"
fill="#000000" stroke="none">
<path d="M1133 2599 c-379 -64 -708 -297 -900 -637 -65 -116 -134 -318 -150
-442 -9 -67 -8 -276 0 -345 15 -111 19 -130 49 -220 132 -393 426 -687 819
-818 100 -34 124 -39 249 -57 212 -29 487 15 690 112 381 182 641 527 715 949
17 97 20 312 5 390 -6 30 -13 69 -16 88 -3 19 -19 74 -34 122 -196 598 -804
964 -1427 858z m342 -14 c33 -3 69 -7 80 -9 11 -3 22 -5 25 -5 3 -1 -2 -6 -10
-11 -9 -6 -72 -7 -155 -4 -80 4 -172 2 -214 -4 -55 -8 -80 -8 -95 0 -20 11
-19 12 14 20 19 4 69 11 110 14 41 4 76 8 78 9 3 3 82 -2 167 -10z m173 -46
c1 -1 5 -2 10 -3 62 -15 76 -43 70 -135 -5 -61 -10 -75 -37 -106 -17 -20 -31
-42 -31 -50 0 -8 -4 -15 -10 -15 -13 0 -13 2 8 101 20 87 20 123 1 146 -34 41
-82 -13 -119 -134 -13 -40 -26 -73 -29 -73 -6 0 -10 47 -11 112 -1 42 48 136
78 152 22 12 58 15 70 5z m-534 -32 c39 -41 68 -126 56 -166 -4 -15 -6 -41 -3
-57 4 -28 4 -28 -11 -10 -9 11 -16 26 -16 34 0 7 -14 47 -31 88 -24 58 -36 75
-56 80 -58 15 -71 -56 -33 -186 13 -44 13 -60 0 -60 -5 0 -10 5 -10 12 0 7
-14 26 -30 43 -27 28 -32 41 -36 101 -7 85 5 120 48 139 55 24 87 19 122 -18z
m359 12 c20 -5 37 -14 37 -19 0 -6 -17 -10 -37 -11 -21 0 -47 -3 -58 -6 -21
-5 -123 -5 -165 1 -14 2 -40 4 -57 5 -73 3 -9 32 97 44 41 5 142 -3 183 -14z
m342 -19 c91 -35 237 -120 325 -190 25 -19 25 -20 3 -20 -12 0 -64 28 -116 63
-51 34 -134 80 -184 102 -50 22 -96 48 -102 57 -9 14 -7 15 17 8 15 -4 41 -13
57 -20z m-885 10 c0 -15 -20 -28 -116 -74 -85 -41 -159 -88 -227 -143 -28 -22
-74 -32 -62 -13 17 28 184 139 280 186 114 56 125 60 125 44z m300 -64 c-36
-14 -50 -12 -50 5 0 5 19 9 43 8 l42 -1 -35 -12z m260 4 c0 -12 -17 -12 -45 0
-17 7 -15 9 13 9 17 1 32 -3 32 -9z m155 -29 c1 -29 -1 -32 -25 -26 -34 9 -35
11 -16 40 22 34 41 27 41 -14z m-577 4 c16 -35 16 -35 -16 -35 -24 0 -28 4
-26 23 1 12 3 25 3 30 2 17 29 5 39 -18z m801 -14 c57 -23 129 -68 174 -109
28 -27 36 -48 15 -39 -7 3 -45 19 -83 35 -63 26 -205 121 -213 143 -4 10 33
-1 107 -30z m-444 15 l50 -12 -75 2 c-41 1 -91 3 -110 4 -33 2 -33 3 -10 10
36 11 87 10 145 -4z m-516 -3 c-2 -29 -255 -173 -302 -173 -19 0 36 50 106 97
91 61 199 102 196 76z m341 -7 c0 -2 -9 -6 -20 -9 -11 -3 -18 -1 -14 4 5 9 34
13 34 5z m570 -62 c0 -1 -14 1 -31 5 -16 3 -30 9 -30 14 1 4 1 12 1 17 0 6 14
1 30 -12 17 -12 30 -23 30 -24z m-554 3 c-15 -19 -26 -40 -27 -48 0 -8 -6 2
-14 21 -11 30 -11 37 3 48 9 6 26 12 39 12 l24 0 -25 -33z m176 19 c11 -8 15
-20 11 -34 -5 -21 -23 -31 -23 -13 0 4 -11 20 -25 35 l-24 26 22 0 c12 0 30
-6 39 -14z m-527 -6 c3 -6 -4 -14 -17 -19 -29 -11 -34 -7 -17 13 16 18 26 20
34 6z m458 -15 c15 -13 31 -35 36 -47 7 -20 2 -29 -34 -60 -38 -33 -44 -36
-56 -22 -7 8 -25 22 -40 30 -26 13 -27 17 -18 44 10 27 61 80 77 80 4 0 19
-12 35 -25z m263 2 c1 -1 -4 -28 -10 -60 -14 -68 -31 -83 -64 -58 -24 18 -24
16 13 120 4 9 14 11 33 6 15 -4 28 -7 28 -8z m-521 -58 c16 -52 17 -62 4 -70
-16 -10 -50 -2 -61 14 -10 16 -20 96 -13 107 3 5 16 10 29 10 19 0 26 -10 41
-61z m-210 21 c-3 -5 -13 -10 -22 -10 -9 0 -31 -11 -49 -25 -18 -14 -40 -25
-48 -25 -9 0 -35 -17 -58 -37 -39 -34 -39 -32 7 15 35 36 67 58 105 72 63 22
74 24 65 10z m1038 -69 c36 -39 29 -41 -11 -3 -7 6 -19 12 -26 12 -7 0 -23 9
-35 19 -12 11 -32 26 -44 35 -19 13 -15 13 26 -1 29 -11 63 -34 90 -62z m-734
29 c0 -10 -3 -8 -9 5 -12 27 -12 43 0 25 5 -8 9 -22 9 -30z m268 8 c-3 -7 -5
-2 -5 12 0 14 2 19 5 13 2 -7 2 -19 0 -25z m339 -3 c19 -14 19 -14 -1 -15 -11
0 -33 -7 -49 -15 -15 -8 -30 -15 -32 -15 -7 0 -4 46 3 53 12 12 59 7 79 -8z
m-890 -3 c10 -6 26 -52 19 -52 -1 0 -22 9 -46 19 -43 20 -43 20 -19 30 31 12
33 12 46 3z m1095 -45 c-8 -8 -17 -5 -34 11 l-22 23 33 -12 c24 -8 30 -15 23
-22z m-1333 -3 c-16 -16 -31 -23 -38 -19 -9 6 -2 14 21 26 46 24 48 23 17 -7z
m763 3 c-10 -9 -11 -8 -5 6 3 10 9 15 12 12 3 -3 0 -11 -7 -18z m252 3 c-3
-11 -9 -20 -15 -20 -5 0 -4 9 2 20 6 11 12 20 14 20 2 0 2 -9 -1 -20z m505
-11 c41 -40 48 -69 27 -112 -23 -50 -83 -117 -104 -117 -10 0 -30 -9 -44 -20
-14 -11 -28 -20 -31 -20 -15 0 -2 19 49 75 87 96 103 148 49 161 -28 7 -70
-19 -149 -90 -27 -25 -50 -44 -52 -42 -2 2 3 16 12 32 8 16 15 34 15 40 0 20
43 66 89 95 60 38 98 38 139 -2z m-1224 5 c3 -8 2 -12 -4 -9 -6 3 -10 10 -10
16 0 14 7 11 14 -7z m520 -8 c-3 -8 -14 -16 -24 -19 -19 -5 -19 -4 -2 18 18
24 35 24 26 1z m352 16 c12 -8 31 -61 28 -79 -1 -7 -2 -20 -3 -28 -1 -10 -11
-15 -30 -15 -16 0 -41 -4 -54 -9 -22 -9 -25 -5 -44 39 -20 47 -20 50 -3 65 28
26 86 41 106 27z m-1273 -14 c37 -19 107 -80 107 -92 0 -6 9 -29 21 -50 11
-21 19 -40 17 -42 -2 -2 -20 11 -39 30 -61 59 -130 106 -155 106 -16 0 -28 -8
-35 -24 -14 -30 2 -61 75 -141 56 -62 62 -74 28 -56 -10 5 -31 12 -46 15 -27
5 -48 26 -98 99 -30 43 -34 66 -17 100 28 57 92 82 142 55z m289 2 c21 -6 44
-18 53 -26 13 -14 13 -18 0 -44 -8 -16 -15 -38 -15 -50 0 -19 -4 -20 -52 -14
-29 4 -54 7 -55 8 -11 9 -8 79 4 104 18 36 15 35 65 22z m326 -12 c11 -14 10
-16 -7 -11 -12 3 -21 9 -21 12 0 8 12 23 14 19 1 -2 7 -11 14 -20z m206 9 c-2
-7 -14 -19 -27 -26 -21 -13 -21 -12 2 13 27 29 33 32 25 13z m-109 -17 c16
-17 16 -20 3 -15 -9 4 -19 13 -22 21 -7 19 -2 18 19 -6z m639 -2 c21 -30 20
-45 -3 -57 -17 -10 -19 -6 -23 34 -4 50 3 56 26 23z m-1158 -4 c-3 -9 -6 -32
-6 -52 l0 -37 -27 27 -27 27 24 26 c26 28 45 33 36 9z m264 -23 c0 -10 -6 -23
-13 -30 -11 -8 -13 -5 -9 19 5 33 22 41 22 11z m560 -6 c0 -2 3 -10 6 -19 10
-25 -58 -21 -81 4 -18 20 -19 20 25 33 14 4 50 -9 50 -18z m57 4 c2 -17 -1
-18 -12 -9 -8 7 -12 16 -9 21 9 16 20 10 21 -12z m-670 -11 c-3 -8 -6 -5 -6 6
-1 11 2 17 5 13 3 -3 4 -12 1 -19z m176 8 c8 -21 -14 -36 -55 -36 -43 0 -48
12 -16 34 28 20 64 21 71 2z m1184 -83 c52 -69 188 -321 179 -331 -8 -7 -46
19 -46 31 0 13 -65 144 -96 193 -10 16 -38 55 -62 87 -39 52 -67 117 -43 103
5 -4 36 -41 68 -83z m-945 30 c-19 -15 -42 -17 -42 -4 0 5 -3 16 -6 24 -4 11
2 16 23 19 33 4 49 -21 25 -39z m58 43 c0 -3 -4 -8 -10 -11 -5 -3 -10 -1 -10
4 0 6 5 11 10 11 6 0 10 -2 10 -4z m695 -6 c3 -6 -2 -21 -13 -35 -19 -24 -20
-24 -37 -5 -18 20 -18 21 1 35 23 17 40 19 49 5z m-831 -16 c4 -9 1 -22 -5
-30 -15 -19 -54 -2 -55 25 -1 17 4 21 26 21 17 0 30 -7 34 -16z m-977 -111
c-56 -83 -117 -198 -140 -265 -3 -9 -15 -22 -26 -28 l-21 -11 21 53 c40 102
72 164 124 243 68 103 88 126 99 115 5 -5 -18 -49 -57 -107z m226 99 c13 -14
14 -21 5 -30 -7 -7 -18 -12 -25 -12 -13 0 -33 30 -33 49 0 18 35 13 53 -7z
m932 12 c13 -5 14 -8 3 -15 -7 -5 -21 -9 -31 -9 -15 0 -16 2 -5 15 16 17 13
16 33 9z m234 -39 c0 -5 -4 -3 -9 5 -5 8 -9 22 -9 30 0 16 17 -16 18 -35z
m-783 19 c-3 -9 -6 -18 -6 -20 0 -2 -4 -4 -9 -4 -5 0 -7 9 -4 20 3 11 10 20
15 20 6 0 7 -7 4 -16z m249 6 c3 -5 -1 -10 -9 -10 -9 0 -16 5 -16 10 0 6 4 10
9 10 6 0 13 -4 16 -10z m739 -15 c-4 -8 -11 -15 -16 -15 -6 0 -5 6 2 15 7 8
14 15 16 15 2 0 1 -7 -2 -15z m-862 -27 l-22 -22 0 21 c0 12 7 23 18 25 27 6
28 -1 4 -24z m1010 -24 c-18 -34 -80 -87 -92 -79 -6 4 -15 17 -20 29 -7 17 -1
28 38 63 46 41 47 42 65 24 15 -14 17 -23 9 -37z m-1342 31 c7 -9 8 -15 2 -15
-5 0 -12 7 -16 15 -3 8 -4 15 -2 15 2 0 9 -7 16 -15z m285 5 c3 -5 1 -10 -4
-10 -6 0 -11 5 -11 10 0 6 2 10 4 10 3 0 8 -4 11 -10z m165 -18 c0 -3 -9 -16
-21 -28 -18 -19 -24 -20 -55 -11 l-34 10 26 28 c23 24 30 26 55 17 16 -5 29
-13 29 -16z m391 -24 c-4 -4 -20 -10 -36 -14 -24 -4 -35 0 -54 20 l-23 25 33
9 c28 7 39 5 60 -12 15 -12 24 -24 20 -28z m24 42 c3 -5 2 -10 -4 -10 -5 0
-13 5 -16 10 -3 6 -2 10 4 10 5 0 13 -4 16 -10z m-932 -59 c34 -31 34 -48 2
-63 -22 -10 -29 -8 -56 18 -47 44 -54 62 -33 85 19 21 17 22 87 -40z m1047 20
c0 -4 -6 -16 -14 -26 -14 -19 -15 -19 -34 -1 -17 15 -19 22 -10 41 10 22 12
23 34 8 13 -8 24 -18 24 -22z m-440 0 c-5 -9 -17 -26 -27 -37 -16 -19 -22 -20
-45 -10 l-27 12 29 31 c22 23 35 29 54 26 20 -4 24 -9 16 -22z m550 19 c-8 -5
-24 -10 -35 -10 -17 0 -17 2 -5 10 8 5 24 10 35 10 17 0 17 -2 5 -10z m452
-22 c65 -74 127 -181 143 -251 9 -42 -7 -31 -64 45 -38 52 -121 212 -121 235
0 10 16 -1 42 -29z m-1284 10 c9 -9 8 -16 -5 -30 -20 -22 -39 -23 -47 -2 -4
10 1 22 11 30 22 17 26 17 41 2z m469 -17 l23 -29 -31 -6 c-25 -5 -35 -1 -54
22 -32 36 -31 42 8 41 23 0 38 -8 54 -28z m423 25 c0 -2 -7 -7 -16 -10 -8 -3
-12 -2 -9 4 6 10 25 14 25 6z m-1470 -14 c0 -21 -70 -173 -89 -194 -12 -12
-34 -42 -49 -65 -55 -87 -55 -29 0 84 27 57 70 122 112 170 13 14 26 17 26 5z
m454 -1 c3 -4 -6 -6 -19 -3 -14 2 -25 6 -25 8 0 8 39 4 44 -5z m496 -23 c16
-18 30 -36 30 -40 0 -4 -17 -16 -38 -27 l-38 -20 -29 23 -28 23 29 36 c16 21
32 37 37 37 4 0 21 -15 37 -32z m538 -4 c-9 -10 -21 -13 -29 -8 -9 5 -8 9 7
15 31 12 39 10 22 -7z m342 -41 c0 -9 -9 -4 -25 13 -13 14 -22 31 -18 37 7 12
43 -28 43 -50z m-1466 32 c3 3 2 0 -3 -6 -12 -14 -45 -3 -36 11 5 8 11 8 19 1
7 -6 16 -9 20 -6z m146 -31 c0 -18 -51 -28 -61 -12 -14 22 -10 34 14 45 17 9
25 8 35 -5 6 -9 12 -21 12 -28z m710 26 l25 -19 -37 -15 c-49 -21 -53 -20 -71
8 -15 23 -15 24 16 34 18 5 34 10 37 11 3 0 16 -8 30 -19z m158 5 c2 -2 1 -12
-2 -23 -5 -14 -13 -18 -31 -14 -30 5 -37 15 -29 37 5 12 14 15 33 10 14 -4 28
-8 29 -10z m-684 -15 c6 -6 3 -17 -8 -29 -17 -18 -20 -19 -61 -3 l-43 16 22
18 c22 19 70 18 90 -2z m-670 -15 c-19 -29 -29 -27 -19 4 3 12 13 21 21 21 12
0 12 -4 -2 -25z m1396 5 c0 -5 -5 -10 -11 -10 -5 0 -7 5 -4 10 3 6 8 10 11 10
2 0 4 -4 4 -10z m-635 -20 c10 -16 -32 -41 -58 -35 -25 7 -25 8 -11 30 10 16
21 21 39 17 14 -2 27 -8 30 -12z m325 -1 c13 -23 13 -24 -16 -33 -28 -9 -66
30 -44 44 25 16 49 11 60 -11z m428 -17 c11 -15 17 -52 8 -52 -24 0 -56 24
-64 49 -11 30 -10 31 16 25 15 -4 33 -13 40 -22z m-1507 -17 c-17 -20 -31 -41
-31 -47 0 -6 -11 -25 -23 -42 -13 -17 -26 -38 -30 -46 -5 -13 -5 -13 -5 0 -1
31 24 80 63 124 22 25 44 46 48 46 5 0 -5 -16 -22 -35z m314 25 c12 -19 -6
-48 -36 -60 -16 -7 -31 -11 -33 -9 -9 11 16 68 32 72 28 8 31 7 37 -3z m281
-68 c-22 -35 -31 -38 -86 -33 -6 1 -8 18 -4 44 10 69 8 68 63 46 l50 -21 -23
-36z m666 28 c4 -24 6 -46 3 -48 -2 -2 -20 -6 -40 -8 -31 -3 -38 1 -55 29 -11
18 -20 34 -20 37 0 8 83 39 95 36 5 -1 13 -22 17 -46z m-429 21 c31 -16 32
-19 12 -45 -14 -19 -15 -19 -50 0 -19 10 -35 21 -35 23 0 9 34 41 39 38 3 -1
18 -9 34 -16z m160 1 c16 -17 15 -20 -23 -44 l-39 -26 -15 23 c-15 22 -14 25
12 44 34 25 45 26 65 3z m431 2 c5 -12 2 -15 -10 -10 -8 3 -23 6 -32 6 -15 0
-15 2 -2 10 22 14 37 12 44 -6z m306 6 c11 -6 24 -19 30 -29 9 -18 7 -19 -26
-9 -20 5 -42 7 -50 4 -17 -7 -18 10 -1 29 15 17 23 18 47 5z m125 -118 c9 -30
15 -55 13 -57 -2 -1 -25 41 -51 94 l-48 96 35 -39 c21 -23 42 -61 51 -94z
m-502 56 c6 -41 5 -42 -30 -31 -22 8 -29 18 -34 46 -7 46 -3 50 31 32 19 -10
29 -24 33 -47z m297 58 c0 -2 -7 -9 -15 -16 -13 -11 -14 -10 -9 4 5 14 24 23
24 12z m-1568 -31 c18 -23 18 -24 -6 -19 -14 2 -36 0 -50 -6 -24 -9 -26 -8
-16 10 9 17 37 39 50 39 3 0 13 -10 22 -24z m298 21 c0 -2 -9 -6 -20 -9 -11
-3 -20 -1 -20 4 0 5 9 9 20 9 11 0 20 -2 20 -4z m100 -28 c0 -42 -8 -53 -44
-62 -26 -6 -28 -5 -22 16 3 13 6 31 6 41 0 15 28 34 53 36 4 1 7 -14 7 -31z
m-345 12 c3 -5 1 -10 -4 -10 -6 0 -11 5 -11 10 0 6 2 10 4 10 3 0 8 -4 11 -10z
m1441 -6 c-3 -9 -6 -21 -6 -27 0 -7 -4 -7 -9 2 -10 16 -4 41 11 41 6 0 7 -7 4
-16z m-1366 -30 c0 -8 -4 -14 -10 -14 -5 0 -10 4 -10 9 0 5 -3 18 -7 28 -6 16
-5 16 10 4 9 -7 17 -20 17 -27z m488 22 c1 -2 -8 -21 -20 -43 -20 -36 -25 -39
-45 -30 -28 12 -28 20 -6 58 15 25 22 29 43 24 14 -4 26 -8 28 -9z m442 -16
c7 -17 11 -32 9 -34 -30 -25 -43 -23 -61 11 -21 39 -17 53 16 53 17 0 27 -9
36 -30z m-748 -10 c-2 -16 -9 -33 -16 -38 -16 -13 -66 -24 -66 -15 1 31 17 57
44 69 42 18 43 18 38 -16z m1040 18 c9 -7 18 -25 22 -41 6 -26 5 -27 -26 -22
-39 7 -37 5 -48 44 -8 28 -7 31 14 31 12 0 29 -6 38 -12z m-529 -120 c0 -51
-4 -120 -8 -153 l-8 -60 -15 35 c-17 41 -23 242 -8 278 8 20 11 21 24 8 11
-11 15 -39 15 -108z m-733 91 c0 -6 -4 -7 -10 -4 -5 3 -10 11 -10 16 0 6 5 7
10 4 6 -3 10 -11 10 -16z m606 5 c19 -9 35 -19 35 -23 4 -22 5 -197 1 -218
l-5 -25 -33 38 c-19 21 -34 43 -34 49 0 6 -14 33 -30 59 -33 51 -33 67 1 110
24 31 22 30 65 10z m276 -1 c27 -31 31 -61 11 -91 -11 -15 -27 -46 -37 -69
-10 -23 -31 -53 -46 -68 l-28 -26 -7 38 c-5 21 -7 42 -6 46 1 5 3 41 4 80 2
39 8 72 14 74 5 2 19 10 29 18 26 19 48 19 66 -2z m698 2 c34 -18 38 -41 14
-91 -18 -38 -27 -40 -78 -19 -20 8 -39 16 -43 18 -5 1 -7 6 -5 11 2 6 4 27 4
47 0 39 8 45 56 48 13 0 36 -6 52 -14z m-1644 -17 c4 -7 8 -21 9 -32 1 -12 5
-33 10 -48 6 -23 4 -28 -9 -28 -10 0 -31 -7 -48 -16 -31 -16 -32 -16 -54 11
-23 29 -35 77 -24 94 16 26 103 40 116 19z m184 0 c0 -7 -4 -19 -9 -26 -7 -11
-10 -10 -15 3 -3 9 -4 21 0 26 8 13 24 11 24 -3z m1210 2 c0 -5 -4 -10 -10
-10 -5 0 -10 5 -10 10 0 6 5 10 10 10 6 0 10 -4 10 -10z m115 -40 c-4 -12 -9
-19 -12 -17 -3 3 -2 15 2 27 4 12 9 19 12 17 3 -3 2 -15 -2 -27z m-1456 -30
c1 -13 0 -13 -9 0 -5 8 -9 24 -9 35 l0 20 9 -20 c5 -11 9 -27 9 -35z m1121 24
c6 -14 10 -27 10 -30 0 -2 -22 -4 -50 -4 -49 0 -50 1 -50 30 0 28 2 30 40 30
34 0 42 -4 50 -26z m-710 -13 c0 -28 -2 -29 -46 -29 -36 0 -44 3 -40 15 3 8 6
21 6 29 0 10 12 14 40 14 38 0 40 -2 40 -29z m595 -10 c-4 -14 -15 -35 -25
-46 -10 -11 -28 -42 -40 -69 -20 -47 -100 -147 -100 -126 0 25 41 125 59 144
11 12 29 42 40 68 28 67 81 90 66 29z m181 33 c15 -4 23 -16 26 -36 4 -27 3
-29 -21 -23 -29 7 -41 21 -41 48 0 18 4 20 36 11z m-891 -31 c-8 -34 -5 -30
-35 -35 -20 -2 -24 1 -22 17 6 38 11 45 38 45 24 0 25 -3 19 -27z m204 -36
c10 -23 29 -56 43 -72 14 -17 34 -59 46 -95 l22 -65 -46 50 c-26 28 -55 70
-66 95 -10 25 -29 56 -42 70 -12 14 -21 31 -20 38 1 6 2 19 3 27 2 28 41 -3
60 -48z m905 -4 c-25 -19 -31 -17 -41 14 -8 23 -6 30 11 39 18 9 23 6 35 -15
12 -22 11 -26 -5 -38z m260 51 c16 -41 1 -64 -40 -64 -13 0 -13 3 0 22 9 12
16 30 16 40 0 22 16 24 24 2z m95 -33 c-13 -4 -15 -2 -23 29 l-7 25 20 -25
c11 -14 15 -27 10 -29z m-2045 1 c-4 -18 -13 -32 -20 -32 -18 0 -18 6 3 41 21
35 25 32 17 -9z m118 -50 c11 -13 10 -15 -5 -9 -10 4 -25 7 -32 7 -20 0 -27
33 -14 66 l11 29 14 -39 c8 -21 20 -46 26 -54z m374 44 c-4 -18 -15 -25 -43
-29 -45 -8 -49 -4 -35 28 7 15 24 28 44 33 36 10 43 3 34 -32z m1082 38 c12
-4 30 -20 38 -37 l16 -30 -43 7 c-45 7 -59 18 -59 49 0 18 11 21 48 11z
m-1205 -49 c-6 -26 -18 -31 -43 -15 -12 7 -12 12 -1 34 18 34 51 20 44 -19z
m1040 -4 c14 -1 17 -10 17 -48 0 -48 0 -48 -55 -78 -30 -16 -55 -32 -55 -36 0
-7 -74 -39 -90 -39 -18 0 1 53 41 114 22 32 39 64 39 71 0 15 22 22 60 19 14
-1 33 -2 43 -3z m-709 -16 c9 -9 16 -21 16 -27 0 -6 12 -27 26 -46 15 -19 35
-56 45 -82 l18 -48 -37 12 c-20 6 -63 28 -94 49 -31 20 -62 37 -68 37 -10 0
-15 102 -5 111 13 13 84 8 99 -6z m1106 5 l25 -8 -25 -1 c-14 0 -32 4 -40 9
-13 9 -13 10 0 9 8 -1 26 -5 40 -9z m346 -6 c35 -17 57 -59 56 -105 -1 -38
-14 -53 -70 -86 -38 -23 -58 -27 -128 -28 -94 -2 -101 12 -16 35 112 31 164
65 155 100 -11 42 -60 46 -188 16 -33 -8 -62 -12 -65 -9 -3 3 1 8 8 11 8 2 28
17 46 33 21 18 51 31 82 36 76 13 86 13 120 -3z m-647 -16 c13 -35 2 -65 -24
-65 -19 0 -24 6 -28 36 -2 20 -2 39 0 44 9 16 44 6 52 -15z m241 -25 c0 -19
-18 -25 -40 -13 -24 13 -25 23 -4 45 15 14 17 14 30 -2 7 -10 14 -23 14 -30z
m-1490 28 c0 -5 -11 -11 -25 -13 -14 -3 -25 -3 -25 -1 0 3 34 19 48 22 1 1 2
-3 2 -8z m310 -37 c0 -43 -1 -45 -27 -42 -18 2 -27 10 -30 26 -4 32 14 62 37
62 17 0 20 -7 20 -46z m-570 25 c25 -6 54 -19 65 -29 11 -10 34 -24 50 -31 49
-19 13 -21 -75 -5 -104 20 -134 20 -151 0 -34 -42 -5 -72 106 -109 44 -14 84
-30 88 -34 14 -14 -106 -21 -143 -8 -62 21 -117 64 -122 95 -7 48 10 91 45
112 36 22 71 24 137 9z m338 -26 c-5 -29 -35 -40 -55 -21 -16 16 -16 19 1 37
15 16 23 18 38 10 11 -6 18 -17 16 -26z m149 -8 c1 -40 -2 -47 -28 -60 -15 -8
-30 -15 -33 -15 -7 0 -49 91 -44 95 2 1 26 7 53 13 28 5 50 10 51 11 0 0 1
-19 1 -44z m1162 30 c3 -4 -25 -79 -36 -94 -2 -2 -19 4 -38 15 -31 16 -35 23
-35 57 l0 39 52 -6 c29 -4 54 -9 57 -11z m271 1 c0 -2 -7 -6 -15 -10 -8 -3
-15 -1 -15 4 0 6 7 10 15 10 8 0 15 -2 15 -4z m-63 -12 c-3 -3 -12 -4 -19 -1
-8 3 -5 6 6 6 11 1 17 -2 13 -5z m-1722 -14 c8 -13 -5 -13 -25 0 -13 8 -13 10
2 10 9 0 20 -4 23 -10z m1732 -24 c12 -12 -17 -13 -33 -1 -18 14 -18 14 5 10
13 -2 26 -6 28 -9z m-1477 -75 c0 -9 -9 -22 -20 -29 -18 -11 -21 -9 -33 20
-13 30 -12 36 6 62 l20 28 13 -32 c8 -18 14 -40 14 -49z m1303 58 c12 -16 12
-28 4 -55 -12 -39 -17 -41 -41 -15 -15 17 -16 25 -6 55 13 41 23 45 43 15z
m431 13 c7 -11 -5 -27 -31 -40 -22 -12 -33 -1 -33 34 0 15 55 20 64 6z m-1930
-17 c-4 -8 -12 -15 -20 -15 -17 0 -18 17 -1 23 22 9 27 7 21 -8z m1838 -11
c14 -30 8 -35 -66 -59 -55 -18 -69 -12 -64 31 3 26 9 30 53 41 28 6 53 12 58
12 4 1 13 -11 19 -25z m-2064 -12 c5 -30 -24 -39 -48 -17 -26 23 -25 33 3 38
33 6 42 2 45 -21z m1532 6 c-1 -22 -24 -44 -54 -52 -17 -4 -47 -21 -67 -37
-31 -24 -134 -69 -158 -69 -17 1 90 85 128 101 24 11 57 31 73 44 31 26 78 34
78 13z m290 -14 c0 -19 -14 -17 -34 5 -16 18 -16 18 9 14 14 -3 25 -12 25 -19z
m-1716 4 c64 -12 79 -30 50 -59 -18 -17 -22 -18 -69 -4 -60 18 -69 27 -60 54
7 25 5 24 79 9z m905 -38 c1 -13 0 -13 -9 0 -5 8 -9 24 -9 35 l0 20 9 -20 c5
-11 9 -27 9 -35z m70 6 c-9 -8 -10 -7 -5 7 3 10 7 24 7 30 1 7 3 4 6 -7 3 -10
-1 -23 -8 -30z m-448 18 c14 -17 82 -54 99 -54 12 0 102 -81 97 -87 -10 -9
-117 33 -145 59 -19 16 -47 31 -63 35 -27 5 -59 35 -59 55 0 15 57 8 71 -8z
m979 -2 c18 -14 21 -25 16 -45 l-6 -26 -38 21 c-20 12 -38 22 -39 23 -1 0 0
11 4 23 7 27 33 28 63 4z m284 -46 c-11 -36 -22 -39 -39 -12 -11 17 -15 35
-11 52 l7 27 25 -24 c17 -16 22 -29 18 -43z m-1594 50 c0 -3 -4 -8 -10 -11 -5
-3 -10 -1 -10 4 0 6 5 11 10 11 6 0 10 -2 10 -4z m238 -17 c7 -12 12 -22 10
-23 -2 0 -18 -11 -36 -24 l-32 -23 -10 26 c-13 35 -14 32 18 49 35 20 35 20
50 -5z m605 1 c-3 -11 -9 -17 -14 -15 -10 7 -1 35 11 35 5 0 6 -9 3 -20z
m-891 -12 c4 -29 -32 -84 -44 -66 -4 7 -8 24 -8 39 0 45 46 69 52 27z m708 -6
c0 -15 -2 -15 -10 -2 -13 20 -13 33 0 25 6 -3 10 -14 10 -23z m828 6 c16 -18
19 -30 14 -57 l-7 -34 -28 24 c-23 20 -27 29 -21 57 8 38 14 39 42 10z m499
-82 c15 -126 5 -348 -17 -370 -14 -15 -20 27 -12 94 9 75 8 211 -2 291 -7 59
1 102 15 78 4 -8 11 -50 16 -93z m-1939 62 c11 -30 10 -34 -14 -57 -21 -19
-28 -21 -35 -10 -14 22 -10 53 9 77 22 29 25 28 40 -10z m-509 -61 c-8 -45 -4
-301 6 -353 4 -21 1 -35 -10 -44 -13 -11 -15 -9 -16 11 0 13 -3 33 -6 44 -9
38 -10 310 0 365 8 47 11 52 22 37 8 -12 10 -30 4 -60z m1375 59 c-3 -8 -13
-17 -22 -21 -13 -5 -13 -2 3 15 21 24 26 25 19 6z m-784 -78 l-24 -20 -9 27
c-7 21 -5 31 14 52 l24 25 9 -33 c8 -28 7 -34 -14 -51z m455 62 c10 -11 13
-20 7 -20 -6 0 -16 9 -22 20 -6 11 -9 20 -7 20 2 0 12 -9 22 -20z m211 -36
c-3 -8 -10 -14 -16 -14 -14 0 -13 27 2 53 l13 22 3 -23 c2 -13 1 -30 -2 -38z
m586 39 c19 -17 23 -40 10 -61 -14 -21 -50 21 -45 52 6 30 10 32 35 9z m-668
-44 c-13 -22 -34 -8 -34 24 l1 32 19 -24 c11 -12 17 -27 14 -32z m545 37 c48
-25 52 -37 28 -80 l-22 -39 -108 0 c-64 -1 -111 3 -118 10 -13 13 34 51 103
82 26 11 50 25 53 31 9 14 31 12 64 -4z m-973 -7 c4 -6 34 -24 68 -39 61 -28
115 -73 99 -83 -11 -7 -66 -10 -149 -8 -77 1 -94 13 -109 74 -6 22 -2 28 32
46 45 24 50 25 59 10z m1650 -127 c7 -82 -10 -222 -27 -222 -5 0 -9 3 -10 8 0
4 -3 16 -6 27 -9 34 -7 300 2 315 14 23 34 -39 41 -128z m-967 125 c-2 -1 -15
-11 -28 -22 l-24 -20 12 23 c6 12 19 22 28 22 9 0 14 -1 12 -3z m-409 -37 c0
-15 -5 -12 -26 11 -19 22 -19 22 4 10 12 -6 22 -16 22 -21z m979 9 c-16 -10
-23 -4 -14 10 3 6 11 8 17 5 6 -4 5 -9 -3 -15z m101 12 c0 -12 -20 -25 -27
-18 -7 7 6 27 18 27 5 0 9 -4 9 -9z m-2031 -99 c7 -46 10 -95 7 -110 -3 -15
-8 -54 -11 -86 -3 -33 -7 -62 -10 -64 -11 -12 -37 119 -37 192 0 86 18 175 32
160 4 -5 13 -46 19 -92z m363 73 c4 -21 3 -23 -13 -14 -11 5 -16 16 -13 24 9
23 21 18 26 -10z m913 -5 c-16 -32 -30 -38 -38 -17 -2 6 8 20 22 29 34 23 34
23 16 -12z m815 10 c-8 -5 -17 -7 -19 -4 -3 3 1 9 9 14 8 5 17 7 19 4 3 -3 -1
-9 -9 -14z m167 -10 c-1 -16 -5 -30 -9 -30 -5 0 -8 3 -8 8 0 4 -3 17 -6 30 -5
16 -2 22 9 22 12 0 16 -8 14 -30z m-1989 8 c19 -19 14 -29 -8 -16 -20 13 -27
28 -12 28 4 0 13 -5 20 -12z m1586 -13 c26 -21 28 -27 20 -54 l-9 -30 -32 27
c-26 22 -31 32 -26 55 6 33 10 33 47 2z m-1818 -22 c-8 -40 -16 -40 -16 1 0
22 4 35 10 31 6 -3 8 -18 6 -32z m434 -8 c-1 -22 -45 -59 -60 -50 -19 12 -10
54 17 75 29 22 43 14 43 -25z m541 35 c21 -12 26 -40 8 -40 -12 0 -38 29 -39
43 0 10 8 9 31 -3z m-821 -10 c8 -5 11 -10 5 -10 -5 0 -17 5 -25 10 -8 5 -10
10 -5 10 6 0 17 -5 25 -10z m1570 -35 c0 -7 -8 -23 -18 -35 -16 -19 -22 -21
-40 -11 l-22 12 21 40 c20 39 21 40 40 23 10 -9 19 -23 19 -29z m407 33 c15
-19 22 -57 13 -63 -5 -3 -12 1 -17 8 -4 8 -21 22 -37 32 -26 17 -27 20 -10 26
28 11 41 10 51 -3z m-2096 -35 c-8 -50 -7 -181 2 -213 5 -19 4 -18 -7 5 -30
62 -30 146 -1 233 9 25 12 11 6 -25z m506 -60 c-26 -14 -33 -10 -53 28 -14 28
-14 31 8 49 l23 18 22 -41 21 -42 -21 -12z m539 59 c-4 -3 -12 0 -19 7 -9 9
-9 14 3 21 11 7 16 5 18 -6 2 -9 1 -18 -2 -22z m57 12 c-8 -21 -23 -17 -23 6
0 13 5 18 14 14 8 -3 12 -12 9 -20z m-1020 -17 c-10 -5 -29 -19 -42 -31 l-24
-21 7 30 c12 46 23 56 52 43 23 -11 23 -12 7 -21z m92 23 c3 -5 1 -10 -4 -10
-6 0 -11 5 -11 10 0 6 2 10 4 10 3 0 8 -4 11 -10z m83 -15 c-3 -3 -9 2 -12 12
-6 14 -5 15 5 6 7 -7 10 -15 7 -18z m1064 13 c-12 -12 -42 -20 -42 -12 0 4 38
22 50 23 2 1 -1 -4 -8 -11z m-168 -29 c-10 -16 -24 -9 -24 12 0 18 2 19 15 9
8 -7 12 -16 9 -21z m-314 11 c12 -8 11 -10 -7 -10 -12 0 -25 5 -28 10 -8 13
15 13 35 0z m166 -27 c-10 -10 -34 11 -29 24 5 14 8 13 20 -2 7 -10 11 -20 9
-22z m1029 21 c19 -9 41 -27 50 -41 22 -32 7 -63 -40 -89 l-33 -17 -39 41 -40
42 24 21 c12 12 25 30 29 41 7 22 8 22 49 2z m-147 -21 c-2 -22 -9 -29 -30
-31 -24 -3 -28 0 -28 21 0 13 3 27 7 30 3 4 17 7 30 7 21 0 24 -4 21 -27z m57
7 c-10 -11 -21 -17 -24 -14 -3 3 3 12 13 20 28 20 32 17 11 -6z m218 -53 c-1
-28 -8 -72 -17 -97 l-16 -45 6 40 c4 22 6 45 6 50 -2 19 -1 70 0 98 3 50 22 9
21 -46z m-396 24 c18 -14 33 -29 33 -32 0 -4 -18 -19 -41 -35 -43 -29 -42 -30
-70 20 -8 14 -7 26 7 52 19 35 21 35 71 -5z m-1627 21 c0 -5 14 -22 31 -40
l31 -31 -34 -40 c-18 -23 -36 -41 -39 -41 -13 0 -73 46 -86 66 -12 18 -11 24
8 48 28 35 89 61 89 38z m74 -29 c4 -10 1 -10 -14 -1 -11 7 -22 18 -24 25 -4
10 -1 10 14 1 11 -7 22 -18 24 -25z m85 15 c6 -17 4 -25 -6 -31 -22 -13 -43 0
-43 28 0 33 37 35 49 3z m956 7 c-21 -17 -37 -15 -43 3 -2 8 8 12 30 12 31 -1
32 -1 13 -15z m-812 -26 c16 -29 16 -32 0 -60 -10 -16 -21 -29 -24 -29 -14 0
-78 45 -79 55 0 12 60 64 75 65 6 0 18 -14 28 -31z m473 20 c14 -23 -13 -30
-37 -10 l-24 20 27 1 c15 0 30 -5 34 -11z m268 -21 c-3 -4 -11 -5 -20 -1 -11
4 -12 8 -3 20 10 11 14 11 20 1 4 -6 6 -15 3 -20z m165 28 c-2 -2 -17 -6 -34
-10 -22 -5 -26 -4 -15 4 14 9 59 15 49 6z m-529 -16 c13 -8 13 -10 -2 -10 -9
0 -20 5 -23 10 -8 13 5 13 25 0z m170 -14 c0 -2 -9 -6 -20 -9 -15 -4 -20 0
-20 14 0 17 3 18 20 9 11 -6 20 -12 20 -14z m109 0 c26 -31 -25 -79 -53 -50
-18 17 -19 24 -10 48 8 20 47 21 63 2z m521 -2 c16 -16 -14 -37 -48 -35 -38 3
-91 3 -132 1 -33 -1 -45 0 -115 17 -29 7 -28 7 20 19 61 14 260 13 275 -2z
m-955 -4 c32 5 68 2 113 -9 l65 -17 -64 -11 c-70 -13 -237 -13 -256 0 -32 21
14 48 63 37 17 -4 53 -4 79 0z m525 -40 c0 -18 -3 -19 -21 -9 -17 9 -19 13 -8
20 22 14 29 11 29 -11z m690 13 c0 -5 3 -18 6 -30 5 -19 2 -23 -19 -23 -24 0
-43 32 -31 52 6 10 44 11 44 1z m-900 -24 c0 -5 -7 -9 -15 -9 -8 0 -15 7 -15
15 0 9 6 12 15 9 8 -4 15 -10 15 -15z m300 -13 c0 -8 -47 -3 -58 6 -22 19 8
28 35 11 13 -8 23 -16 23 -17z m398 0 l20 -34 -23 -22 -22 -21 -22 42 c-12 23
-21 42 -19 44 4 2 42 24 45 25 0 0 10 -15 21 -34z m273 8 c22 -25 22 -26 3
-16 -12 6 -24 18 -28 27 -8 21 -3 19 25 -11z m-1641 9 c-1 -33 -15 -53 -36
-53 -20 0 -24 5 -24 30 0 27 3 30 30 30 17 0 30 -3 30 -7z m1025 -3 c8 -13 -5
-13 -25 0 -13 8 -13 10 2 10 9 0 20 -4 23 -10z m-826 -11 c17 -11 17 -13 -3
-50 l-21 -38 -21 20 c-21 20 -21 22 -6 50 19 32 24 34 51 18z m326 1 c-3 -5
-16 -10 -28 -9 -21 0 -21 1 -2 9 28 12 37 12 30 0z m88 -5 c1 -5 -14 -11 -33
-13 -33 -3 -34 -3 -15 12 22 17 45 17 48 1z m882 -23 c3 -23 -2 -34 -26 -51
l-29 -22 -12 27 c-11 24 -9 28 22 54 19 16 36 27 38 25 2 -1 5 -16 7 -33z
m305 7 c-12 -41 -13 -42 -50 -34 l-32 7 34 20 c18 11 35 24 36 29 2 5 7 9 12
9 5 0 5 -14 0 -31z m-1890 18 c0 -2 -10 -12 -22 -23 l-23 -19 19 23 c18 21 26
27 26 19z m1306 -7 l62 0 21 -42 c19 -38 19 -44 5 -59 -8 -9 -28 -23 -44 -29
-25 -10 -32 -10 -47 5 -10 10 -40 28 -68 41 -57 25 -101 62 -88 74 11 11 53
19 78 14 11 -2 48 -4 81 -4z m-1435 -50 c20 0 7 -18 -17 -24 -30 -8 -53 15
-54 52 l0 24 31 -26 c17 -14 35 -26 40 -26z m292 24 c24 -23 26 -37 10 -67 -9
-15 -63 34 -63 57 0 43 17 46 53 10z m775 17 c10 -6 10 -10 -3 -21 -8 -7 -15
-10 -15 -7 0 3 -3 12 -6 21 -7 17 3 20 24 7z m-372 -13 c10 -11 -48 -55 -121
-93 -60 -31 -73 -34 -96 -24 -46 18 -63 43 -49 71 27 51 32 53 149 52 61 0
113 -3 117 -6z m224 -1 c0 -8 -3 -16 -6 -20 -8 -8 -33 16 -27 26 7 12 33 8 33
-6z m110 -31 c0 -3 -9 -6 -19 -6 -14 0 -18 5 -14 20 4 16 7 17 19 5 8 -7 14
-16 14 -19z m210 24 c0 -12 -8 -12 -35 0 -18 8 -17 9 8 9 15 1 27 -3 27 -9z
m-486 -9 c3 -5 -3 -11 -15 -14 -16 -4 -18 -3 -8 9 13 16 16 17 23 5z m215 -20
c-3 -6 -10 -7 -18 -2 -7 5 -10 14 -6 21 9 14 29 -2 24 -19z m912 12 c13 -16
12 -17 -3 -4 -17 13 -22 21 -14 21 2 0 10 -8 17 -17z m217 -14 c2 -19 -2 -28
-8 -24 -11 7 -14 38 -3 48 9 10 8 10 11 -24z m-974 -1 c20 -28 15 -32 -17 -17
-15 7 -23 17 -20 25 7 20 20 17 37 -8z m676 12 c0 -5 -2 -10 -4 -10 -3 0 -8 5
-11 10 -3 6 -1 10 4 10 6 0 11 -4 11 -10z m-920 -15 c0 -14 -37 -41 -46 -33
-6 6 26 48 37 48 5 0 9 -7 9 -15z m450 -45 c14 -11 45 -30 70 -42 42 -20 69
-43 70 -60 0 -14 -57 -8 -70 7 -7 8 -40 28 -74 45 -33 16 -81 48 -106 70 l-45
40 65 -20 c36 -11 76 -29 90 -40z m-1450 41 c0 -5 3 -16 6 -25 4 -11 1 -16
-10 -16 -10 0 -16 9 -16 25 0 14 5 25 10 25 6 0 10 -4 10 -9z m1743 -63 c-22
-24 -32 -23 -43 8 -9 21 -6 29 12 44 23 19 23 19 35 -8 9 -22 8 -30 -4 -44z
m155 34 c-9 -10 -13 -11 -19 0 -5 7 -9 19 -9 26 0 10 4 10 19 0 15 -9 17 -15
9 -26z m102 5 c0 -5 -7 -6 -16 -3 -9 3 -18 6 -20 6 -2 0 -4 7 -4 15 0 13 3 13
20 3 11 -7 20 -17 20 -21z m60 23 c0 -5 -2 -10 -4 -10 -3 0 -8 5 -11 10 -3 6
-1 10 4 10 6 0 11 -4 11 -10z m-1562 -62 c-11 -32 -15 -34 -39 -12 -14 13 -15
21 -7 45 10 28 10 28 33 11 19 -14 21 -21 13 -44z m358 20 c-26 -22 -74 -54
-107 -69 -33 -16 -62 -35 -65 -44 -7 -17 -64 -21 -64 -4 0 20 21 49 36 49 8 0
41 17 72 37 62 41 126 70 156 72 13 1 5 -11 -28 -41z m-691 22 c-3 -5 -14 -10
-23 -9 -14 0 -13 2 3 9 27 11 27 11 20 0z m69 -14 c-6 -16 -24 -23 -24 -8 0
10 22 33 27 28 2 -2 1 -11 -3 -20z m1619 -8 c4 -25 0 -39 -17 -56 l-23 -23
-13 31 c-12 28 -11 33 10 55 31 33 37 31 43 -7z m376 -13 c70 -37 87 -83 55
-151 -11 -23 -27 -37 -51 -45 -50 -16 -136 -3 -172 26 -15 14 -41 30 -57 36
-43 17 -12 22 48 9 134 -29 188 -22 188 25 0 31 -27 49 -125 81 -97 32 -113
44 -59 44 21 0 45 4 52 9 14 8 71 -8 121 -34z m-1909 19 c0 -8 -5 -12 -10 -9
-6 4 -8 11 -5 16 9 14 15 11 15 -7z m67 -9 c26 -23 26 -25 12 -56 l-15 -32
-22 24 c-19 20 -24 55 -13 87 3 6 14 0 38 -23z m523 0 c-7 -8 -17 -15 -23 -15
-5 0 -2 9 8 20 21 23 35 19 15 -5z m165 15 c7 -11 -12 -50 -25 -50 -7 0 -7 34
-1 58 2 6 21 1 26 -8z m93 -22 c3 -31 2 -31 -18 -13 -25 22 -26 45 -2 45 13 0
18 -9 20 -32z m162 8 c0 -2 -9 -2 -20 1 -11 3 -20 9 -20 15 0 5 9 4 20 -2 11
-6 20 -12 20 -14z m609 -62 c-7 -13 -20 -24 -29 -24 -23 0 -22 39 2 73 l22 30
9 -27 c7 -20 5 -35 -4 -52z m-1791 52 c54 1 36 -13 -55 -42 -127 -42 -165 -82
-110 -118 23 -16 42 -15 157 9 36 8 67 11 70 8 3 -3 -1 -8 -9 -11 -8 -3 -26
-16 -40 -31 -47 -46 -165 -60 -218 -26 -31 21 -49 85 -34 123 19 45 134 105
181 93 14 -3 40 -6 58 -5z m157 -66 c-8 -35 -15 -37 -38 -10 -20 24 -22 51 -5
68 20 20 51 -22 43 -58z m975 50 c6 -11 9 -20 7 -20 -2 0 -12 9 -22 20 -10 11
-13 20 -7 20 6 0 16 -9 22 -20z m402 -15 c2 -14 -6 -26 -26 -39 -29 -17 -30
-17 -43 0 -19 25 -17 30 20 52 34 21 43 18 49 -13z m-1074 -21 c1 -1 -3 -13
-9 -27 -11 -25 -13 -25 -38 -12 -51 28 -52 30 -42 58 l10 27 38 -22 c21 -12
39 -22 41 -24z m340 26 c-7 -11 -15 -15 -17 -9 -2 6 3 15 10 20 20 12 21 11 7
-11z m475 -43 c17 -14 47 -32 65 -41 31 -16 33 -20 31 -62 -3 -53 -12 -62 -61
-60 -34 1 -40 6 -74 61 -43 71 -60 102 -69 132 -6 22 -6 22 35 8 22 -8 55 -25
73 -38z m643 37 c61 -21 64 -24 53 -53 -9 -24 -11 -24 -99 -6 -8 2 -21 4 -27
4 -16 1 -17 26 -1 51 15 24 13 24 74 4z m-1095 -55 c-10 -30 -35 -78 -55 -108
-20 -29 -36 -61 -36 -72 0 -10 -13 -25 -30 -34 -30 -15 -30 -15 -30 10 0 15
11 41 24 58 14 18 33 52 44 77 17 39 92 134 99 126 2 -2 -5 -27 -16 -57z m297
24 c18 -21 44 -58 55 -83 12 -25 32 -59 45 -77 12 -17 22 -43 22 -58 0 -26 -1
-27 -22 -13 -12 8 -35 39 -50 67 -14 29 -34 61 -42 70 -17 19 -59 131 -49 131
3 0 22 -17 41 -37z m521 -28 c0 -5 -8 -21 -18 -34 l-18 -23 -17 43 c-18 43
-17 44 6 62 23 19 23 19 35 -9 7 -16 12 -33 12 -39z m-1579 40 c7 -8 10 -25 6
-38 -4 -18 -16 -25 -63 -35 -62 -13 -76 -6 -71 32 2 13 19 25 53 36 65 23 61
22 75 5z m264 -13 c6 -11 -15 -82 -24 -82 -4 0 -15 9 -24 19 -15 17 -16 25 -6
55 10 31 14 34 30 26 10 -6 21 -14 24 -18z m414 -9 c-6 -21 -22 -51 -36 -68
-14 -16 -31 -45 -39 -62 -14 -34 -24 -38 -87 -34 -36 2 -33 -2 -39 44 -4 30 0
44 14 58 10 10 24 19 31 19 6 0 27 12 47 28 34 26 83 50 108 51 8 1 9 -9 1
-36z m315 17 c3 -11 1 -18 -4 -14 -5 3 -9 12 -9 20 0 20 7 17 13 -6z m-187
-16 c-4 -9 -9 -15 -11 -12 -3 3 -3 13 1 22 4 9 9 15 11 12 3 -3 3 -13 -1 -22z
m105 -35 c10 -51 11 -85 5 -154 -1 -16 1 -39 4 -50 5 -12 1 -32 -7 -49 -14
-28 -16 -28 -27 -10 -15 25 -17 172 -4 257 6 37 13 66 15 64 1 -2 8 -28 14
-58z m30 18 c-8 -8 -11 -3 -11 19 1 25 2 27 11 11 8 -14 8 -22 0 -30z m-84 -4
c-3 -10 -5 -4 -5 12 0 17 2 24 5 18 2 -7 2 -21 0 -30z m798 18 c-3 -6 -11 -11
-17 -11 -6 0 -6 6 2 15 14 17 26 13 15 -4z m-1505 -21 c8 -15 7 -17 -10 -13
-11 3 -20 14 -20 25 0 22 15 16 30 -12z m1835 16 c27 -20 13 -44 -23 -38 -24
3 -28 8 -24 28 5 27 19 30 47 10z m-2136 -54 c1 -17 -61 -12 -66 5 -2 6 8 18
24 27 25 13 29 13 35 -2 4 -10 7 -23 7 -30z m508 8 c5 0 9 -18 9 -40 l0 -41
-48 4 c-26 1 -50 6 -54 9 -3 4 2 29 12 57 l18 50 27 -20 c15 -10 31 -19 36
-19z m1151 -2 c11 -24 16 -47 12 -51 -4 -5 -29 -11 -54 -14 l-46 -4 0 39 c0
30 6 43 23 55 34 24 45 20 65 -25z m-463 -73 c14 -27 31 -59 40 -70 13 -18 12
-24 -11 -63 -27 -46 -40 -48 -91 -16 -19 12 -22 23 -22 84 0 39 -2 74 -5 78
-3 5 0 27 6 51 l11 43 24 -29 c13 -15 35 -50 48 -78z m-212 -23 c-1 -53 -2
-100 -2 -105 -1 -11 -63 -47 -82 -47 -8 0 -25 17 -37 38 l-21 38 29 45 c17 24
30 49 30 55 0 6 14 29 32 52 44 57 53 43 51 -76z m907 109 c0 -5 -7 -12 -16
-15 -24 -9 -28 -7 -14 9 14 17 30 20 30 6z m-1661 -24 c8 -11 5 -13 -19 -9
-16 2 -27 8 -24 13 8 13 30 11 43 -4z m1311 -32 c0 -43 -1 -45 -29 -45 -28 0
-29 2 -28 45 2 42 4 45 30 45 25 0 27 -3 27 -45z m-1243 29 c-3 -3 -12 -4 -19
-1 -8 3 -5 6 6 6 11 1 17 -2 13 -5z m303 -41 c0 -42 -1 -44 -27 -40 -22 3 -29
10 -31 31 -5 40 3 54 32 54 24 0 26 -4 26 -45z m1173 35 c15 -12 15 -15 -1
-36 -16 -21 -19 -21 -40 -6 -22 15 -22 17 -6 35 20 22 25 23 47 7z m-1419 -23
c16 -12 17 -17 6 -30 -17 -21 -33 -19 -49 6 -11 18 -11 23 1 30 17 11 20 11
42 -6z m1596 5 c18 -12 2 -12 -25 0 -13 6 -15 9 -5 9 8 0 22 -4 30 -9z m-1727
-17 c-7 -2 -19 -2 -25 0 -7 3 -2 5 12 5 14 0 19 -2 13 -5z m-60 -10 c-7 -2
-19 -2 -25 0 -7 3 -2 5 12 5 14 0 19 -2 13 -5z m1683 -2 c-3 -5 -17 -11 -32
-14 -29 -5 -20 9 11 16 11 3 21 5 23 6 2 0 1 -3 -2 -8z m144 -41 c0 -35 -9
-60 -22 -60 -5 0 -7 4 -4 8 2 4 -3 26 -13 48 l-18 40 28 -4 c24 -4 29 -9 29
-32z m-1705 9 c7 -10 -36 -2 -48 10 -5 5 2 6 17 4 15 -3 29 -9 31 -14z m1634
-13 c12 -18 21 -47 21 -64 0 -28 -5 -33 -39 -43 -57 -17 -91 -6 -91 31 0 16
-4 40 -10 54 -8 23 -7 26 13 26 12 1 33 7 47 15 34 20 36 19 59 -19z m268 -65
c-45 -102 -122 -232 -169 -285 -61 -67 -45 -19 31 96 37 57 83 139 102 183 32
77 60 117 67 96 2 -6 -12 -46 -31 -90z m-537 84 c0 -23 -28 -54 -57 -63 l-34
-10 3 31 c2 23 9 33 28 38 30 8 60 11 60 4z m78 -4 c12 -7 12 -12 1 -30 -19
-29 -49 -28 -49 2 0 36 19 47 48 28z m-1578 -5 c0 -2 -8 -23 -19 -46 -14 -31
-20 -37 -25 -25 -8 22 -8 60 1 68 7 7 43 10 43 3z m256 -22 c11 -42 -39 -63
-52 -22 -4 15 -1 25 12 35 26 19 33 16 40 -13z m110 14 c1 -2 5 -15 9 -31 8
-29 -4 -34 -51 -21 -18 5 -44 41 -44 60 0 5 80 -3 86 -8z m1574 5 c0 -5 -11
-21 -25 -38 l-24 -30 11 38 c6 20 17 37 25 37 7 0 13 -3 13 -7z m-2202 -16 c6
-7 33 -58 61 -113 28 -55 76 -136 108 -179 53 -74 79 -131 46 -104 -54 46
-192 268 -227 367 -15 41 -9 55 12 29z m374 -4 c35 -5 36 -7 27 -32 -6 -14
-10 -27 -10 -28 1 -2 1 -14 1 -28 0 -31 -37 -42 -90 -26 -47 14 -54 36 -29 91
16 36 22 41 42 36 12 -4 39 -10 59 -13z m1258 -39 c-7 -7 -23 -14 -35 -14 -20
0 -22 3 -16 27 9 34 54 50 59 21 2 -11 -2 -26 -8 -34z m614 29 c-12 -55 -85
-189 -128 -238 -47 -52 -62 -45 -31 14 8 16 20 46 28 67 14 40 116 184 130
184 4 0 5 -12 1 -27z m-2105 -15 l11 -33 -20 24 c-11 12 -17 27 -14 32 8 14
11 11 23 -23z m75 -68 c8 -8 17 -26 21 -40 4 -14 21 -41 39 -60 17 -19 7 -13
-22 15 -43 41 -56 62 -72 114 -25 79 -24 89 1 31 11 -25 26 -52 33 -60z m502
87 c8 -13 12 -57 5 -57 -31 0 -57 20 -59 45 -2 25 0 27 26 20 15 -4 27 -7 28
-8z m-592 -65 c44 -58 116 -205 116 -234 0 -18 -39 22 -85 87 -64 89 -116 217
-87 214 4 0 29 -30 56 -67z m1424 41 c-3 -25 -7 -28 -47 -31 -37 -3 -43 -1
-37 13 3 9 6 23 6 31 0 10 12 14 41 14 38 0 40 -1 37 -27z m-705 -2 c8 -31 -7
-43 -48 -39 -33 3 -39 8 -42 31 -4 26 -2 27 40 27 35 0 46 -4 50 -19z m1050
-7 c3 -18 1 -22 -6 -15 -13 13 -18 41 -7 41 4 0 10 -12 13 -26z m222 -36 c-10
-28 -33 -61 -62 -89 -26 -24 -40 -35 -32 -24 7 11 17 22 20 25 4 3 15 21 25
41 25 47 58 98 61 95 2 -1 -4 -23 -12 -48z m-1684 11 c-9 -22 -10 -22 -10 -3
-1 11 2 24 6 27 12 12 14 0 4 -24z m987 -40 c-14 -41 -31 -51 -61 -40 l-26 10
26 40 c23 35 28 38 48 29 20 -9 22 -14 13 -39z m302 20 c-11 -39 -10 -38 -49
-49 -33 -9 -35 -6 -22 40 4 14 17 27 31 31 46 13 49 11 40 -22z m50 -13 c-16
-17 -28 -1 -18 24 10 24 11 24 18 5 4 -11 4 -24 0 -29z m-1124 21 c9 -10 14
-67 5 -67 -29 0 -60 22 -69 50 l-11 31 36 -6 c20 -3 38 -7 39 -8z m304 -24
c22 -38 16 -53 -22 -53 -15 0 -56 57 -46 64 3 3 42 25 45 26 0 0 11 -16 23
-37z m670 -3 c0 -31 -30 -70 -54 -70 -10 0 -13 9 -10 33 7 49 11 55 36 60 13
2 24 5 26 6 1 0 2 -12 2 -29z m-1060 -1 c0 -6 -4 -7 -10 -4 -5 3 -10 11 -10
16 0 6 5 7 10 4 6 -3 10 -11 10 -16z m178 6 c2 -2 6 -22 9 -45 l6 -41 -29 13
c-16 6 -30 12 -31 13 0 0 -4 18 -8 39 l-8 39 29 -7 c16 -4 30 -9 32 -11z m782
5 c15 0 16 -5 9 -46 -11 -59 -16 -66 -37 -54 -9 6 -30 14 -45 20 l-28 10 17
32 c19 38 34 50 52 43 8 -3 22 -5 32 -5z m358 -15 c-3 -3 -9 2 -12 12 -6 14
-5 15 5 6 7 -7 10 -15 7 -18z m-1013 -16 c8 -15 15 -32 15 -37 0 -8 -74 -42
-91 -42 -8 0 -20 90 -14 100 3 4 21 8 40 8 29 0 38 -5 50 -29z m988 -22 c-8
-13 -31 25 -25 41 4 11 8 8 18 -9 7 -13 10 -27 7 -32z m-723 -3 c0 -6 -14 -18
-32 -27 -24 -12 -35 -13 -50 -4 -27 17 -22 30 20 52 33 18 38 19 49 5 7 -8 13
-20 13 -26z m118 19 c15 -9 29 -18 31 -19 1 -2 -6 -12 -16 -23 -18 -19 -21
-19 -48 -5 -39 20 -38 19 -25 43 13 25 23 26 58 4z m775 -7 c-24 -32 -48 -38
-68 -16 -16 18 -6 38 13 26 5 -3 22 -1 38 4 16 4 30 9 32 9 2 1 -5 -10 -15
-23z m-1547 -23 c-11 -11 -19 6 -11 24 8 17 8 17 12 0 3 -10 2 -21 -1 -24z
m1314 28 c0 -25 -20 -59 -38 -63 -29 -8 -41 3 -31 30 10 28 69 56 69 33z
m-1441 -16 l33 3 -26 -26 -26 -26 -27 20 c-36 27 -43 47 -11 35 13 -5 39 -8
57 -6z m211 5 c10 0 34 -59 27 -66 -8 -8 -64 23 -70 38 -7 21 4 40 20 34 8 -3
18 -6 23 -6z m1361 -17 c13 -16 12 -17 -3 -4 -17 13 -22 21 -14 21 2 0 10 -8
17 -17z m-1501 3 c0 -2 -8 -10 -17 -17 -16 -13 -17 -12 -4 4 13 16 21 21 21
13z m1270 -6 c0 -5 -8 -10 -17 -10 -15 0 -16 2 -3 10 19 12 20 12 20 0z
m-1037 -10 c8 0 8 -3 0 -11 -13 -13 -43 -5 -43 12 0 6 7 8 16 5 9 -3 21 -6 27
-6z m359 -7 c24 -22 23 -30 -8 -37 -18 -5 -32 -2 -45 10 -24 21 -24 31 -1 37
30 8 35 7 54 -10z m341 8 c17 -6 16 -8 -5 -28 -16 -15 -31 -20 -46 -16 -25 6
-26 7 -12 34 11 19 31 23 63 10z m582 -25 c55 -9 138 -127 127 -181 -6 -35
-66 -85 -100 -85 -25 0 -84 32 -135 73 -10 8 -20 25 -22 38 -3 13 -14 36 -24
50 -37 49 -9 38 65 -26 84 -74 117 -87 145 -59 18 19 18 20 0 59 -10 22 -42
64 -70 93 -28 29 -51 58 -51 64 0 6 7 5 18 -5 9 -9 31 -18 47 -21z m-731 -8
c18 -14 17 -16 -8 -43 -14 -15 -26 -32 -26 -36 0 -20 -25 -7 -55 28 l-33 38
37 22 c36 21 44 21 85 -9z m-773 -5 c-11 -16 -38 -48 -60 -72 -73 -81 -78
-138 -12 -135 23 2 51 19 107 69 42 36 79 64 82 61 3 -3 -2 -14 -10 -23 -9
-10 -19 -32 -22 -49 -11 -51 -108 -124 -163 -124 -41 0 -103 58 -103 96 0 47
78 164 109 164 9 0 30 9 46 19 42 27 50 25 26 -6z m499 -4 c13 -24 14 -23 -27
-37 -24 -8 -36 -7 -52 4 -28 20 -26 30 7 42 42 16 60 14 72 -9z m529 7 l24
-13 -26 -18 c-22 -14 -32 -15 -62 -5 -35 12 -36 13 -19 31 20 22 49 24 83 5z
m159 -7 c16 -25 15 -25 -20 -34 -20 -5 -29 -2 -37 14 -9 16 -8 22 6 30 26 15
37 13 51 -10z m252 -6 c12 -16 29 -35 37 -44 12 -14 11 -19 -5 -39 l-18 -23
-52 47 -52 46 20 20 c27 27 42 25 70 -7z m187 -9 c-9 -18 -16 -23 -22 -15 -4
7 1 21 11 32 23 26 29 17 11 -17z m-1780 -27 c-6 -18 -21 -7 -34 24 l-14 33
26 -24 c14 -13 24 -28 22 -33z m227 37 c25 -24 18 -46 -28 -86 l-43 -38 -21
21 -22 20 42 49 c24 28 46 50 50 50 4 0 14 -7 22 -16z m246 -15 c0 -23 -15
-32 -40 -24 -18 6 -27 34 -15 47 13 12 55 -5 55 -23z m-80 17 c0 -3 -4 -8 -10
-11 -5 -3 -10 -1 -10 4 0 6 5 11 10 11 6 0 10 -2 10 -4z m613 -58 c-17 -18
-37 -28 -55 -28 -35 0 -35 10 -3 48 23 28 28 29 55 19 l30 -11 -27 -28z m-201
15 c35 -34 35 -38 -3 -41 -23 -2 -37 4 -55 25 -22 25 -22 28 -6 35 28 11 35 9
64 -19z m448 -27 c-18 -18 -22 -19 -35 -5 -13 13 -13 17 1 37 15 22 17 23 35
6 19 -18 19 -18 -1 -38z m203 48 c11 -11 -3 -24 -18 -18 -8 4 -12 10 -9 15 6
11 18 12 27 3z m-1133 -26 c-13 -5 -25 -6 -29 -3 -9 10 21 24 37 17 12 -4 10
-7 -8 -14z m220 7 c7 -9 9 -22 5 -32 -5 -10 -7 -22 -6 -26 2 -10 -17 0 -42 21
-16 14 -16 16 -1 34 21 22 28 22 44 3z m563 -45 c-23 -23 -32 -26 -56 -19 -40
11 -40 11 -12 41 22 24 27 25 60 15 l35 -10 -27 -27z m-383 15 c24 -26 23 -27
-27 -38 -14 -3 -32 3 -49 18 -25 21 -25 23 -8 34 31 17 59 13 84 -14z m644 6
c11 -4 15 -10 9 -14 -5 -3 -19 0 -29 8 -20 15 -11 18 20 6z m-1014 -5 c0 -2
-7 -7 -16 -10 -8 -3 -12 -2 -9 4 6 10 25 14 25 6z m65 -16 c-11 -5 -27 -9 -35
-9 -13 -1 -13 0 0 9 8 5 24 9 35 9 l20 0 -20 -9z m739 -17 c-4 -14 -11 -19
-25 -16 -17 5 -17 6 4 23 26 22 28 21 21 -7z m321 7 c10 -11 16 -20 13 -20 -3
0 -13 9 -23 20 -10 11 -16 20 -13 20 3 0 13 -9 23 -20z m-100 -10 c39 -5 40
-6 43 -48 4 -61 -18 -94 -59 -87 -37 7 -79 33 -79 49 1 6 7 22 15 36 8 14 14
35 15 48 0 16 4 21 13 15 6 -4 30 -10 52 -13z m-755 -11 c0 -6 -4 -7 -10 -4
-5 3 -10 11 -10 16 0 6 5 7 10 4 6 -3 10 -11 10 -16z m580 17 c0 -3 -4 -8 -10
-11 -5 -3 -10 -1 -10 4 0 6 5 11 10 11 6 0 10 -2 10 -4z m71 -37 c-6 -16 -10
-18 -10 -7 -1 22 12 55 16 42 2 -6 -1 -22 -6 -35z m417 17 c16 -37 -7 -49 -43
-22 -16 12 -17 16 -6 30 19 23 36 20 49 -8z m-1568 -25 c0 -11 -32 -31 -49
-31 -16 0 -13 22 5 48 13 19 17 20 30 8 8 -8 14 -19 14 -25z m180 35 c0 -2 -7
-7 -16 -10 -8 -3 -12 -2 -9 4 6 10 25 14 25 6z m150 -8 c0 -7 7 -26 15 -42 20
-37 12 -61 -24 -76 -66 -27 -95 -18 -105 35 -10 51 0 75 32 76 15 0 36 4 47 9
28 12 35 12 35 -2z m49 -38 c0 -9 -4 -8 -9 5 -5 11 -9 27 -9 35 0 9 4 8 9 -5
5 -11 9 -27 9 -35z m452 28 c4 -6 5 -18 2 -27 -3 -13 -12 -16 -34 -13 -29 4
-35 16 -23 46 7 17 43 13 55 -6z m-209 -10 c-19 -20 -24 -21 -32 -8 -7 12 -3
16 18 21 15 4 29 7 32 8 2 0 -6 -9 -18 -21z m118 -3 c0 -21 -5 -25 -30 -25
-23 0 -30 5 -30 19 0 20 12 29 43 30 12 1 17 -7 17 -24z m175 5 c3 -5 2 -10
-4 -10 -5 0 -13 5 -16 10 -3 6 -2 10 4 10 5 0 13 -4 16 -10z m459 -27 c5 -13
-30 -63 -45 -63 -5 0 -8 12 -5 28 2 15 5 37 5 50 1 20 3 21 21 10 11 -7 22
-18 24 -25z m-1188 1 c-3 -14 -1 -37 4 -50 9 -22 8 -24 -10 -14 -35 19 -41 43
-18 68 27 28 29 28 24 -4z m823 -10 c-37 -40 -101 -25 -65 15 11 12 26 16 51
13 l36 -4 -22 -24z m-439 6 c27 -20 28 -18 -26 -35 -19 -6 -54 21 -54 42 0 20
51 16 80 -7z m90 6 c0 -3 -4 -8 -10 -11 -5 -3 -10 -1 -10 4 0 6 5 11 10 11 6
0 10 -2 10 -4z m416 -18 c-7 -34 -7 -34 -15 -13 -9 22 -5 35 10 35 5 0 7 -10
5 -22z m-616 -14 c0 -8 -4 -14 -10 -14 -5 0 -10 9 -10 21 0 11 5 17 10 14 6
-3 10 -13 10 -21z m660 12 c0 -3 -4 -8 -10 -11 -5 -3 -10 -1 -10 4 0 6 5 11
10 11 6 0 10 -2 10 -4z m-296 -42 c7 -19 2 -18 -19 6 -16 17 -16 20 -3 15 9
-4 19 -13 22 -21z m-201 -8 c-10 -13 -21 -22 -25 -20 -12 7 2 33 20 37 10 3
18 5 20 6 2 0 -5 -10 -15 -23z m92 4 c-10 -11 -20 -18 -23 -16 -5 6 21 35 32
36 5 0 1 -9 -9 -20z m205 -7 c0 -13 -3 -13 -15 -3 -8 7 -15 16 -15 21 0 5 7 6
15 3 8 -4 15 -13 15 -21z m-730 -30 c19 -10 48 -28 64 -41 l29 -23 -29 7 c-42
10 -55 18 -104 65 -25 23 -34 35 -20 25 14 -9 41 -24 60 -33z m638 -3 c29 0 6
-61 -37 -97 -32 -28 -32 -28 -63 -3 -33 26 -58 82 -39 88 8 3 28 17 45 33 l31
28 26 -25 c14 -13 30 -24 37 -24z m295 30 c3 -11 1 -18 -4 -14 -5 3 -9 12 -9
20 0 20 7 17 13 -6z m321 14 c13 -5 8 -11 -19 -25 -46 -25 -49 -24 -23 6 25
28 21 27 42 19z m-1043 -31 c-12 -20 -14 -14 -5 12 4 9 9 14 11 11 3 -2 0 -13
-6 -23z m135 -67 c-18 -56 -33 -67 -64 -47 -11 7 -11 19 -2 69 14 67 31 81 64
51 19 -17 19 -19 2 -73z m494 84 c4 0 11 -17 15 -37 3 -21 9 -47 11 -59 4 -15
-2 -23 -21 -32 -28 -13 -26 -16 -61 80 -12 34 -11 39 4 48 9 5 23 7 30 5 8 -3
17 -5 22 -5z m-925 -20 c17 -19 17 -19 -9 -7 -14 7 -26 15 -26 20 0 13 17 7
35 -13z m261 -5 c-3 -13 -7 -29 -11 -35 -9 -15 -48 -12 -71 5 -19 14 -19 14 1
15 11 0 34 9 50 19 17 11 31 20 33 20 1 1 0 -10 -2 -24z m79 -32 c-28 -122
-28 -186 2 -198 43 -16 76 27 108 143 21 74 35 88 35 35 0 -22 4 -43 9 -48 11
-12 -20 -108 -47 -145 -30 -40 -61 -51 -110 -38 -49 12 -73 41 -77 91 -5 51
15 126 41 154 13 14 26 34 29 44 4 11 10 19 15 19 4 0 2 -26 -5 -57z m650 27
c9 -16 20 -30 26 -30 15 0 30 -50 34 -119 4 -59 2 -65 -24 -91 -15 -16 -45
-32 -65 -36 -47 -8 -80 14 -116 77 -20 36 -25 58 -25 121 0 43 4 77 8 75 5 -1
21 -40 37 -85 36 -104 53 -132 85 -132 48 0 55 49 26 173 -19 79 -13 99 14 47z
m105 11 c40 -18 41 -19 19 -27 -43 -14 -50 -13 -60 12 -15 41 -16 41 41 15z
m134 -15 c-21 -20 -55 -39 -81 -46 -53 -13 -67 -8 -26 9 15 7 51 25 78 41 66
38 72 37 29 -4z m146 -3 c-29 -46 -194 -148 -258 -159 -14 -3 -30 -8 -35 -11
-6 -3 -6 0 -1 9 16 28 138 114 194 137 30 12 66 28 80 36 30 16 35 13 20 -12z
m-1369 -25 c61 -27 183 -104 224 -141 19 -17 -69 5 -130 33 -70 31 -188 118
-179 131 7 12 0 14 85 -23z m792 2 c3 -11 1 -18 -4 -14 -5 3 -9 12 -9 20 0 20
7 17 13 -6z m652 -6 c-86 -73 -245 -168 -337 -202 -93 -35 -61 2 47 54 92 44
232 132 255 159 7 8 24 15 39 15 l26 -1 -30 -25z m-925 1 c0 -8 -4 -15 -10
-15 -5 0 -7 7 -4 15 4 8 8 15 10 15 2 0 4 -7 4 -15z m-587 -41 c34 -25 117
-72 184 -105 112 -54 142 -74 131 -84 -7 -8 -167 62 -238 104 -68 41 -180 120
-180 127 0 2 9 4 20 4 11 0 48 -21 83 -46z m822 -40 c-10 -8 -29 -14 -42 -14
l-24 0 26 28 c14 15 28 36 32 47 6 17 8 15 17 -14 8 -28 7 -36 -9 -47z m-164
6 c5 0 9 -4 9 -10 0 -14 -33 -12 -54 3 -13 10 -16 20 -10 41 l7 28 19 -31 c11
-17 24 -31 29 -31z m514 10 c-20 -22 -35 -26 -35 -10 0 6 10 15 23 20 32 13
32 12 12 -10z m-881 -10 c4 -5 7 -13 5 -19 -2 -6 -17 0 -34 15 -29 24 -29 25
-5 18 14 -3 29 -10 34 -14z m736 -45 c0 -39 -22 -48 -40 -16 -18 34 -12 43 33
50 4 0 7 -15 7 -34z m-583 19 c21 -6 22 -8 7 -36 -19 -36 -38 -32 -42 10 -3
34 -1 35 35 26z m340 -27 c10 -11 -67 -19 -104 -12 -21 4 -49 9 -63 12 -51 9
-30 12 64 9 54 -2 100 -6 103 -9z m87 -22 c4 -12 -3 -15 -37 -14 l-42 1 35 13
c19 7 36 14 36 14 1 1 4 -6 8 -14z m-259 -5 c17 -7 15 -9 -12 -9 -18 -1 -33 4
-33 9 0 12 17 12 45 0z m190 -35 c11 -2 37 -4 58 -4 76 -2 33 -27 -63 -37 -25
-3 -56 -7 -70 -8 -14 -2 -54 1 -90 5 -125 18 -128 28 -12 45 69 10 117 10 177
-1z m-95 -73 c58 0 128 4 155 9 51 10 95 5 95 -10 0 -17 -131 -30 -285 -27
-88 2 -168 7 -178 11 -16 7 -16 8 -1 19 11 8 32 10 63 5 25 -4 93 -7 151 -7z"/>
</g>
</svg>
